<svg width="25" height="24" viewBox="0 0 25 24" fill="none" xmlns="http://www.w3.org/2000/svg">
<mask id="mask0_1_765" style="mask-type:luminance" maskUnits="userSpaceOnUse" x="2" y="2" width="22" height="21">
<path fill-rule="evenodd" clip-rule="evenodd" d="M2.5 2H23.1966V22.6689H2.5V2Z" fill="white"/>
</mask>
<g mask="url(#mask0_1_765)">
<path fill-rule="evenodd" clip-rule="evenodd" d="M8.14263 3.5C5.23863 3.5 3.99963 4.976 3.99963 8.433V16.232C3.99963 19.416 5.75763 21.169 8.94963 21.169H16.7316C19.9156 21.169 21.6686 19.416 21.6686 16.232V16.229L21.6966 11.264C21.6966 7.865 20.5306 6.54 17.5356 6.54H14.7056C13.7566 6.539 12.8506 6.086 12.2806 5.328L11.3676 4.114C11.0806 3.729 10.6216 3.501 10.1416 3.5H8.14263ZM16.7316 22.669H8.94963C4.97163 22.669 2.49963 20.202 2.49963 16.232V8.433C2.49963 4.164 4.39863 2 8.14263 2H10.1426C11.0936 2.001 11.9996 2.455 12.5676 3.214L13.4786 4.426C13.7676 4.81 14.2266 5.039 14.7066 5.04H17.5356C21.3976 5.04 23.1966 7.019 23.1966 11.268L23.1686 16.235C23.1676 20.203 20.7016 22.669 16.7316 22.669Z" fill="black"/>
</g>
<path fill-rule="evenodd" clip-rule="evenodd" d="M17.2158 15.7128H8.48083C8.06683 15.7128 7.73083 15.3768 7.73083 14.9628C7.73083 14.5488 8.06683 14.2128 8.48083 14.2128H17.2158C17.6298 14.2128 17.9658 14.5488 17.9658 14.9628C17.9658 15.3768 17.6298 15.7128 17.2158 15.7128Z" fill="black"/>
</svg>
